# xmcd
#
# Track frame offsets: 
#        182
#        17825
#        26477
#
# Disc length: 578 seconds
#
# Revision: 5
# Processed by: cddbd v1.5.2PL0 Copyright (c) Steve Scherf et al.
# Submitted via: ExactAudioCopy v0.99pb4
#
DISCID=19024003
DTITLE=Enya - Marble Halls (Promo Single)
DYEAR=1993
DGENRE=New Age
TTITLE0=Marble Halls (Album Version)
TTITLE1=Ebudae (Album Version)
TTITLE2=Oíche Chiún (Silent Night)
EXTD=YEAR: 1995
EXTT0=
EXTT1=
EXTT2=
PLAYORDER=
